
<svg width="104" height="43" viewBox="0 0 104 43" fill="none" xmlns="http://www.w3.org/2000/svg">
<path d="M20.2384 2.08594C20.2384 2.08594 20.9149 2.52229 21.2152 2.79851C21.2152 2.79851 22.3401 2.63839 22.6343 2.63239C22.6343 2.63239 22.5602 3.09275 21.9638 3.81334C21.9638 3.81334 22.246 4.53192 22.0859 5.17844C22.0859 5.17844 21.4894 4.70606 20.8689 4.48988C20.8689 4.48988 19.9722 4.80414 19.3517 4.84017C19.3517 4.84017 19.6399 4.30574 19.738 4.0175C19.738 4.0175 19.0014 3.68523 18.7432 3.59916L20.0702 3.12078C20.0722 3.11878 20.3425 2.62637 20.2384 2.08594Z" fill="#019BA9"/>
<path d="M18.3789 0.3125C18.3789 0.3125 18.7152 0.53068 18.8653 0.66679C18.8653 0.66679 19.4258 0.586719 19.5719 0.584717C19.5719 0.584717 19.5359 0.814904 19.2376 1.17319C19.2376 1.17319 19.3777 1.53149 19.2997 1.85175C19.2997 1.85175 19.0034 1.61556 18.6932 1.50948C18.6932 1.50948 18.2468 1.6656 17.9366 1.68362C17.9366 1.68362 18.0807 1.41739 18.1287 1.27327C18.1287 1.27327 17.7624 1.10714 17.6323 1.06511L18.2929 0.826917C18.2949 0.826917 18.431 0.582718 18.3789 0.3125Z" fill="#019BA9"/>
<path d="M22.0337 0C22.0337 0 22.4541 0.272225 22.6402 0.442362C22.6402 0.442362 23.3388 0.344281 23.5229 0.340278C23.5229 0.340278 23.4769 0.626504 23.1066 1.07286C23.1066 1.07286 23.2827 1.51923 23.1827 1.91956C23.1827 1.91956 22.8124 1.62532 22.426 1.49121C22.426 1.49121 21.8676 1.68537 21.4833 1.70939C21.4833 1.70939 21.6634 1.37711 21.7235 1.19696C21.7235 1.19696 21.2651 0.9908 21.105 0.936756L21.9296 0.638517C21.9316 0.640518 22.0978 0.336272 22.0337 0Z" fill="#019BA9"/>
<path d="M25.1304 1.70117C25.1304 1.70117 25.4046 1.87731 25.5247 1.98941C25.5247 1.98941 25.9791 1.92536 26.0991 1.92136C26.0991 1.92136 26.0691 2.1075 25.8289 2.39973C25.8289 2.39973 25.943 2.68997 25.879 2.95218C25.879 2.95218 25.6368 2.76003 25.3866 2.67396C25.3866 2.67396 25.0243 2.80006 24.7721 2.81607C24.7721 2.81607 24.8882 2.5999 24.9282 2.48181C24.9282 2.48181 24.63 2.34769 24.5259 2.31367L25.0623 2.11952C25.0623 2.11952 25.1724 1.91935 25.1304 1.70117Z" fill="#019BA9"/>
<path d="M18.4949 5.72461C18.4949 5.72461 18.7711 5.90274 18.8952 6.01483C18.8952 6.01483 19.3536 5.95079 19.4757 5.94679C19.4757 5.94679 19.4457 6.13493 19.2015 6.42917C19.2015 6.42917 19.3176 6.72341 19.2515 6.98563C19.2515 6.98563 19.0073 6.79146 18.7551 6.70539C18.7551 6.70539 18.3888 6.8335 18.1366 6.84751C18.1366 6.84751 18.2547 6.62934 18.2948 6.51124C18.2948 6.51124 17.9945 6.37713 17.8884 6.3411L18.4309 6.14494C18.4269 6.14494 18.537 5.94479 18.4949 5.72461Z" fill="#019BA9"/>
<path d="M21.3331 5.79492C21.3331 5.79492 22.462 6.52351 22.9644 6.98388C22.9644 6.98388 24.84 6.71967 25.3324 6.70766C25.3324 6.70766 25.2103 7.47829 24.2155 8.67726C24.2155 8.67726 24.6858 9.87823 24.4196 10.9531C24.4196 10.9531 23.4248 10.1644 22.388 9.80616C22.388 9.80616 20.8908 10.3286 19.8559 10.3886C19.8559 10.3886 20.3383 9.49792 20.5005 9.01353C20.5005 9.01353 19.2695 8.46108 18.8391 8.31496L21.0529 7.51631C21.0569 7.51631 21.5073 6.69565 21.3331 5.79492Z" fill="#019BA9"/>
<path d="M24.2214 4.43945C24.2214 4.43945 24.894 4.87381 25.1922 5.14803C25.1922 5.14803 26.3091 4.9899 26.6034 4.9819C26.6034 4.9819 26.5313 5.44026 25.9388 6.15484C25.9388 6.15484 26.2191 6.86942 26.0609 7.50994C26.0609 7.50994 25.4684 7.03955 24.852 6.82738C24.852 6.82738 23.9592 7.13764 23.3447 7.17367C23.3447 7.17367 23.631 6.64324 23.729 6.355C23.729 6.355 22.9964 6.02673 22.7402 5.93866L24.0593 5.46229C24.0553 5.46429 24.3235 4.97589 24.2214 4.43945Z" fill="#019BA9"/>
<path d="M11.4571 9.53955C15.1121 9.53955 16.3911 11.9315 16.3911 14.4435C16.3911 18.2186 13.9552 19.2574 10.7446 19.2574C8.5608 19.2574 7.72814 19.0933 7.63806 18.5148C7.57801 18.1285 7.54799 16.8795 7.54799 14.8598L7.562 11.4711C7.562 11.1148 7.38385 10.8906 6.59521 10.9667C6.59521 10.134 7.27777 9.53955 8.66089 9.53955H11.4571ZM10.2242 11.2469V17.518C10.4463 17.532 10.8927 17.562 11.2049 17.562C12.9584 17.562 13.775 16.9075 13.775 14.7678C13.775 12.1997 12.3178 11.1729 10.2242 11.2469Z" fill="#019BA9"/>
<path d="M24.0134 17.2362C24.0134 17.5925 24.2516 17.8006 25.0383 17.7266C25.0383 18.5593 24.3557 19.2578 23.0627 19.2578C22.1119 19.2578 21.7256 18.8715 21.7256 18.0388V17.7426C21.4874 18.8115 20.6567 19.2578 19.3036 19.2578C17.6683 19.2578 16.7776 18.4412 16.7776 17.2362C16.7776 15.751 17.8324 14.9784 20.0322 14.9784C20.5366 14.9784 20.999 15.0084 21.4894 15.0684V14.7121C21.4894 13.8354 20.939 13.5672 20.0482 13.5672C19.1415 13.5672 18.2508 13.9395 17.6703 14.6221C17.314 14.3839 17.1799 14.1016 17.1799 13.5972C17.1799 12.6164 18.3689 11.7397 20.8048 11.7397C23.0787 11.7397 24.0154 12.5724 24.0154 14.1477V17.2362H24.0134ZM20.3885 16.1813C19.5859 16.1813 19.2436 16.4335 19.2436 16.998C19.2436 17.4283 19.4958 17.7266 20.2244 17.7266C20.953 17.7266 21.4574 17.2962 21.4574 16.2714C21.041 16.1954 20.8629 16.1813 20.3885 16.1813Z" fill="#019BA9"/>
<path d="M24.6677 13.2988C24.6677 12.4661 25.3363 11.7676 26.7334 11.7676C27.8183 11.7676 28.2346 12.1979 28.2346 12.8525V19.0495C27.9384 19.2136 27.476 19.2416 26.9576 19.2416C26.185 19.2416 25.6806 19.0775 25.6505 18.513C25.6205 17.9786 25.6065 17.1759 25.6065 15.8389C25.6065 14.3817 25.6225 13.9213 25.6225 13.8032C25.6185 13.4469 25.4403 13.2247 24.6677 13.2988Z" fill="#019BA9"/>
<path d="M29.2135 12.7926C29.1995 11.1433 29.1234 10.4888 28.8872 9.88028C29.2595 9.538 29.854 9.35986 30.3884 9.35986C31.4132 9.35986 31.8736 9.80623 31.8736 10.6529V17.2362C31.8736 17.5925 32.0518 17.8007 32.8244 17.7266C32.8244 18.5593 32.1558 19.2579 30.7587 19.2579C29.822 19.2579 29.2575 18.8856 29.2575 17.9208L29.2135 12.7926Z" fill="#019BA9"/>
<path d="M33.2548 13.8473C33.0906 13.3569 33.0326 13.2388 32.4681 13.2969C32.4681 12.4642 33.1367 11.7656 34.5338 11.7656C35.1423 11.7656 35.3965 12.0178 35.5747 12.5683L36.9277 16.7136L37.5082 15.3025C37.8805 14.3957 38.0286 13.8013 38.0286 13.2228C38.0286 12.8805 37.9846 12.5543 37.8805 12.182C38.1487 11.9297 38.505 11.7816 39.0094 11.7816C39.8861 11.7816 40.4066 12.212 40.4066 13.0446C40.4066 13.7272 40.0643 14.5899 39.3817 16.0911C38.8613 17.2641 37.8225 19.2417 37.3601 20.0443C36.2312 21.9759 35.2944 22.5563 34.0614 22.5563C32.9465 22.5563 32.3521 22.096 32.3521 21.2032C32.3521 20.7569 32.5602 20.4006 32.8865 20.1624C33.0946 20.5347 33.5991 20.891 34.2236 20.891C34.6699 20.891 34.8781 20.5948 35.7388 19.1816C35.2784 19.1516 35.0102 18.8694 34.788 18.2449L33.2548 13.8473Z" fill="#019BA9"/>
<path d="M0.966785 23.1689C0.966785 22.8127 0.788638 22.5885 0 22.6645C0 21.8319 0.698568 21.1333 2.07968 21.1333C3.53686 21.1333 4.35352 21.6837 4.8279 22.7226L6.65538 26.7939L8.83915 22.2022C9.13539 21.5777 9.61177 21.1473 10.3844 21.1473C11.5133 21.1473 12.0778 21.3395 12.5101 21.6677C12.2579 22.024 12.2119 22.9167 12.2119 24.0757V30.703C11.9156 30.8672 11.2751 30.9112 10.8147 30.9112C10.0121 30.9112 9.69985 30.703 9.62579 30.2867C9.56574 29.8864 9.55173 28.5773 9.55173 26.5577C9.55173 25.2046 9.56773 24.3439 9.56773 24.3439L7.27988 29.426C7.08773 29.5601 6.65539 29.6782 6.28509 29.6782C5.66058 29.6782 5.26026 29.5301 5.03608 29.0237L3.03045 24.476V26.7038C3.03045 29.2299 3.20859 29.9724 3.63894 30.3888C3.3427 30.685 2.82228 30.9092 2.19777 30.9092C1.247 30.9092 0.964781 30.3287 0.964781 29.1558V23.1689H0.966785Z" fill="#019BA9"/>
<path d="M12.6602 24.9966C12.6602 24.1639 13.3287 23.4653 14.7258 23.4653C15.8107 23.4653 16.227 23.8957 16.227 24.5502V30.7472C15.9288 30.9114 15.4684 30.9394 14.95 30.9394C14.1774 30.9394 13.673 30.7752 13.643 30.2108C13.6129 29.6764 13.5989 28.8737 13.5989 27.5366C13.5989 26.0795 13.6129 25.6191 13.6129 25.501C13.6109 25.1447 13.4328 24.9225 12.6602 24.9966ZM14.7859 22.7828C13.8351 22.7828 13.4328 22.4705 13.4328 21.846C13.4328 21.2375 13.8331 20.8652 14.8739 20.8652C15.8247 20.8652 16.227 21.2375 16.227 21.816C16.227 22.3664 15.9748 22.7828 14.7859 22.7828Z" fill="#019BA9"/>
<path d="M17.578 24.4919C17.564 22.8425 17.4879 22.188 17.2517 21.5795C17.624 21.2372 18.2165 21.0591 18.7529 21.0591C19.7778 21.0591 20.2381 21.5054 20.2381 22.3521V28.9354C20.2381 29.2917 20.4163 29.4999 21.1889 29.4258C21.1889 30.2585 20.5203 30.9571 19.1232 30.9571C18.1865 30.9571 17.622 30.5848 17.622 29.62L17.578 24.4919Z" fill="#019BA9"/>
<path d="M21.6217 24.4919C21.6077 22.8425 21.5316 22.188 21.2954 21.5795C21.6677 21.2372 22.2622 21.0591 22.7966 21.0591C23.8215 21.0591 24.2818 21.5054 24.2818 22.3521V28.9354C24.2818 29.2917 24.46 29.4999 25.2326 29.4258C25.2326 30.2585 24.564 30.9571 23.1669 30.9571C22.2302 30.9571 21.6657 30.5848 21.6657 29.62L21.6217 24.4919Z" fill="#019BA9"/>
<path d="M24.874 24.9966C24.874 24.1639 25.5426 23.4654 26.9397 23.4654C28.0246 23.4654 28.4409 23.8957 28.4409 24.5502V30.7473C28.1427 30.9114 27.6823 30.9394 27.1639 30.9394C26.3913 30.9394 25.8868 30.7753 25.8568 30.2108C25.8268 29.6764 25.8128 28.8737 25.8128 27.5367C25.8128 26.0795 25.8268 25.6191 25.8268 25.501C25.8248 25.1447 25.6466 24.9225 24.874 24.9966ZM26.9997 22.7828C26.049 22.7828 25.6466 22.4706 25.6466 21.8461C25.6466 21.2376 26.047 20.8653 27.0878 20.8653C28.0386 20.8653 28.4409 21.2376 28.4409 21.816C28.4409 22.3665 28.1887 22.7828 26.9997 22.7828ZM26.6855 10.9713C25.7347 10.9713 25.3324 10.659 25.3324 10.0345C25.3324 9.42602 25.7327 9.05371 26.7736 9.05371C27.7243 9.05371 28.1267 9.42601 28.1267 10.0045C28.1267 10.5549 27.8744 10.9713 26.6855 10.9713Z" fill="#019BA9"/>
<path d="M33.389 30.9713C31.0111 30.9713 29.4958 29.9465 29.4958 27.4945C29.4958 24.9084 31.0271 23.4072 33.6112 23.4072C36.0031 23.4072 37.4603 24.4781 37.4603 26.9441C37.4603 29.6783 35.7969 30.9713 33.389 30.9713ZM33.433 25.1446C32.4382 25.1446 32.126 25.8432 32.126 27.3284C32.126 28.7996 32.4683 29.334 33.5371 29.334C34.4579 29.334 34.8902 28.7536 34.8902 27.1503C34.8902 25.8892 34.578 25.1446 33.433 25.1446Z" fill="#019BA9"/>
<path d="M41.1152 24.9082C41.3974 23.9274 42.17 23.437 43.345 23.437C44.9643 23.437 46.0792 24.0315 46.0792 25.7549C46.0792 26.4234 46.0492 27.9847 46.0492 28.9355C46.0492 29.2917 46.2273 29.4999 46.9999 29.4259C46.9999 30.2585 46.3314 30.9571 44.9343 30.9571C43.9975 30.9571 43.4631 30.5848 43.4631 29.62C43.4631 28.9655 43.4931 27.08 43.4931 26.5595C43.4931 25.6968 43.1068 25.2665 42.096 25.2665C41.4575 25.2665 41.1592 25.5487 41.1592 26.1872V30.7489C40.861 30.9131 40.3706 30.9411 39.8822 30.9411C38.9755 30.9411 38.5891 30.7029 38.5751 30.2125C38.5311 29.6781 38.5311 29.0395 38.5311 28.2509C38.5311 26.7957 38.5751 25.5027 38.5751 25.5027C38.5751 25.1464 38.397 24.9222 37.6104 24.9983C37.6104 24.1656 38.2789 23.467 39.676 23.467C40.6548 23.467 41.1152 23.8814 41.1152 24.9082Z" fill="#019BA9"/>
<path d="M16.4113 34.0332C17.9846 34.0332 18.8593 34.8499 18.8593 36.8235C18.8593 38.9272 17.7123 40.028 15.7968 40.028C15.3825 40.028 14.8741 39.98 14.6739 39.922C14.6739 41.2931 14.7439 41.9196 14.9461 42.392C14.6499 42.6642 14.1655 42.8063 13.7411 42.8063C12.9365 42.8063 12.5942 42.452 12.5942 41.7895L12.6182 35.6765C12.6182 35.3923 12.4761 35.2161 11.8496 35.2742C11.8496 34.6117 12.382 34.0572 13.4929 34.0572C14.2736 34.0572 14.6399 34.3875 14.6399 35.2041C14.862 34.4235 15.4765 34.0332 16.4113 34.0332ZM14.6719 36.221V38.6569C14.9801 38.727 15.1563 38.763 15.5586 38.763C16.4453 38.763 16.8356 38.1966 16.8356 37.0496C16.8356 36.0448 16.3753 35.4884 15.4165 35.4884C14.9081 35.4884 14.6719 35.7126 14.6719 36.221Z" fill="#B3DB11"/>
<path d="M19.5918 34.8724C19.5797 33.5593 19.5217 33.0389 19.3315 32.5545C19.6278 32.2823 20.1002 32.1401 20.5265 32.1401C21.3432 32.1401 21.7095 32.4944 21.7095 33.169V38.4072C21.7095 38.6914 21.8516 38.8556 22.4661 38.7975C22.4661 39.4601 21.9336 40.0145 20.8228 40.0145C20.0781 40.0145 19.6278 39.7183 19.6278 38.9496L19.5918 34.8724Z" fill="#B3DB11"/>
<path d="M29.648 38.7974C29.648 39.46 29.1156 40.0144 28.0047 40.0144C27.224 40.0144 26.8577 39.6722 26.8577 38.8555C26.6335 39.6361 26.0311 40.0264 25.0843 40.0264C23.8073 40.0264 22.9806 39.5541 22.9806 38.1709C22.9806 37.6505 23.0286 36.4215 23.0286 35.6769C23.0286 35.3927 22.8865 35.2165 22.26 35.2746C22.26 34.6121 22.7924 34.0576 23.9033 34.0576C24.6479 34.0576 25.0623 34.2578 25.0623 35.0164C25.0623 35.5488 25.0383 37.1321 25.0383 37.5464C25.0383 38.233 25.2744 38.5753 26.0791 38.5753C26.5875 38.5753 26.8237 38.3511 26.8237 37.8427V36.2114C26.8237 35.5368 26.7877 34.7342 26.7056 34.2958C26.9418 34.1537 27.3201 34.0596 27.6984 34.0596C28.6212 34.0596 28.9154 34.4259 28.9154 35.6789C28.9154 36.8379 28.8794 38.4091 28.8794 38.4091C28.8794 38.6914 29.0215 38.8575 29.648 38.7974Z" fill="#B3DB11"/>
<path d="M33.0969 38.3853C33.0969 38.1371 33.0268 38.043 32.01 37.8288C30.6849 37.5566 30.0824 37.1202 30.0824 36.1254C30.0824 34.9905 30.9331 34.0317 32.7906 34.0317C34.4099 34.0317 35.0024 34.7523 35.0024 35.4149C35.0024 35.7691 34.8022 36.1234 34.3759 36.2896C34.0336 35.8052 33.205 35.5089 32.4023 35.5089C32.0941 35.5089 31.976 35.6751 31.976 35.8272C31.976 36.0754 32.082 36.1234 32.8747 36.2996C34.6241 36.7139 35.0745 37.0562 35.0745 38.073C35.0745 39.1959 34.4239 40.0126 32.4724 40.0126C31.0412 40.0126 29.8943 39.6703 29.8943 38.7355C29.8943 38.3692 30.0724 38.049 30.4267 37.8008C30.723 38.2151 31.6677 38.6875 32.7326 38.6875C33.0028 38.6915 33.0969 38.5254 33.0969 38.3853Z" fill="#B3DB11"/>
</svg>
